<mxfile host="app.diagrams.net" agent="Mozilla/5.0 (Windows NT 10.0; Win64; x64) AppleWebKit/537.36 (KHTML, like Gecko) Chrome/131.0.0.0 Safari/537.36" version="26.0.4">
  <diagram name="第 1 页" id="VylbXP7a1H1fu-DR2pGI">
    <mxGraphModel dx="888" dy="564" grid="1" gridSize="10" guides="1" tooltips="1" connect="1" arrows="1" fold="1" page="1" pageScale="1" pageWidth="827" pageHeight="1169" math="0" shadow="0">
      <root>
        <mxCell id="0" />
        <mxCell id="1" parent="0" />
        <mxCell id="PLjwvCZiPShB4uKmxhY9-1" value="" style="verticalLabelPosition=bottom;aspect=fixed;html=1;shape=mxgraph.salesforce.iot2;" vertex="1" parent="1">
          <mxGeometry x="310" y="340" width="60" height="60" as="geometry" />
        </mxCell>
        <mxCell id="PLjwvCZiPShB4uKmxhY9-2" value="" style="verticalLabelPosition=bottom;aspect=fixed;html=1;shape=mxgraph.salesforce.iot2;" vertex="1" parent="1">
          <mxGeometry x="160" y="210" width="60" height="60" as="geometry" />
        </mxCell>
        <mxCell id="PLjwvCZiPShB4uKmxhY9-3" value="" style="verticalLabelPosition=bottom;aspect=fixed;html=1;shape=mxgraph.salesforce.iot2;" vertex="1" parent="1">
          <mxGeometry x="310" y="80" width="60" height="60" as="geometry" />
        </mxCell>
        <mxCell id="PLjwvCZiPShB4uKmxhY9-4" value="" style="verticalLabelPosition=bottom;aspect=fixed;html=1;shape=mxgraph.salesforce.iot2;" vertex="1" parent="1">
          <mxGeometry x="310" y="210" width="60" height="60" as="geometry" />
        </mxCell>
        <mxCell id="PLjwvCZiPShB4uKmxhY9-5" value="" style="verticalLabelPosition=bottom;aspect=fixed;html=1;shape=mxgraph.salesforce.communications2;" vertex="1" parent="1">
          <mxGeometry x="10" y="210" width="60" height="60" as="geometry" />
        </mxCell>
        <mxCell id="PLjwvCZiPShB4uKmxhY9-14" value="" style="shape=flexArrow;endArrow=classic;startArrow=classic;html=1;rounded=0;startWidth=10.285714285714286;startSize=5.714285714285714;endWidth=10.285714285714286;endSize=5.714285714285714;entryX=0;entryY=0.5;entryDx=0;entryDy=0;entryPerimeter=0;fillColor=#d5e8d4;strokeColor=#82b366;" edge="1" parent="1" target="PLjwvCZiPShB4uKmxhY9-4">
          <mxGeometry width="100" height="100" relative="1" as="geometry">
            <mxPoint x="220" y="239.71" as="sourcePoint" />
            <mxPoint x="280" y="240" as="targetPoint" />
            <Array as="points">
              <mxPoint x="270" y="240" />
            </Array>
          </mxGeometry>
        </mxCell>
        <mxCell id="PLjwvCZiPShB4uKmxhY9-15" value="" style="shape=flexArrow;endArrow=classic;startArrow=classic;html=1;rounded=0;startWidth=10.285714285714286;startSize=5.714285714285714;endWidth=10.285714285714286;endSize=5.714285714285714;entryX=0;entryY=0.5;entryDx=0;entryDy=0;entryPerimeter=0;fillColor=#fff2cc;strokeColor=#d6b656;" edge="1" parent="1">
          <mxGeometry width="100" height="100" relative="1" as="geometry">
            <mxPoint x="70" y="239.66" as="sourcePoint" />
            <mxPoint x="160" y="239.95" as="targetPoint" />
          </mxGeometry>
        </mxCell>
        <mxCell id="PLjwvCZiPShB4uKmxhY9-16" value="" style="shape=flexArrow;endArrow=classic;startArrow=classic;html=1;rounded=0;startWidth=10.285714285714286;startSize=5.714285714285714;endWidth=10.285714285714286;endSize=5.714285714285714;entryX=0.049;entryY=0.752;entryDx=0;entryDy=0;entryPerimeter=0;fillColor=#dae8fc;strokeColor=#6c8ebf;" edge="1" parent="1" target="PLjwvCZiPShB4uKmxhY9-3">
          <mxGeometry width="100" height="100" relative="1" as="geometry">
            <mxPoint x="210" y="210" as="sourcePoint" />
            <mxPoint x="300" y="150" as="targetPoint" />
          </mxGeometry>
        </mxCell>
        <mxCell id="PLjwvCZiPShB4uKmxhY9-17" value="" style="shape=flexArrow;endArrow=classic;startArrow=classic;html=1;rounded=0;startWidth=10.285714285714286;startSize=5.714285714285714;endWidth=10.285714285714286;endSize=5.714285714285714;fillColor=#ffe6cc;strokeColor=#d79b00;" edge="1" parent="1">
          <mxGeometry width="100" height="100" relative="1" as="geometry">
            <mxPoint x="210" y="270" as="sourcePoint" />
            <mxPoint x="310" y="360" as="targetPoint" />
          </mxGeometry>
        </mxCell>
        <mxCell id="PLjwvCZiPShB4uKmxhY9-18" value="" style="shape=flexArrow;endArrow=classic;startArrow=classic;html=1;rounded=0;startWidth=2.7419354838709675;startSize=1.912;endWidth=2.7419354838709675;endSize=1.912;fillColor=#dae8fc;strokeColor=#6c8ebf;width=3.04;" edge="1" parent="1">
          <mxGeometry width="100" height="100" relative="1" as="geometry">
            <mxPoint x="30" y="320" as="sourcePoint" />
            <mxPoint x="60" y="320" as="targetPoint" />
          </mxGeometry>
        </mxCell>
        <mxCell id="PLjwvCZiPShB4uKmxhY9-23" value="" style="shape=flexArrow;endArrow=classic;startArrow=classic;html=1;rounded=0;startWidth=2.7419354838709675;startSize=1.912;endWidth=2.7419354838709675;endSize=1.912;fillColor=#d5e8d4;strokeColor=#82b366;width=3.04;" edge="1" parent="1">
          <mxGeometry width="100" height="100" relative="1" as="geometry">
            <mxPoint x="30" y="330" as="sourcePoint" />
            <mxPoint x="60" y="330" as="targetPoint" />
          </mxGeometry>
        </mxCell>
        <mxCell id="PLjwvCZiPShB4uKmxhY9-24" value="" style="shape=flexArrow;endArrow=classic;startArrow=classic;html=1;rounded=0;startWidth=2.7419354838709675;startSize=1.912;endWidth=2.7419354838709675;endSize=1.912;fillColor=#ffe6cc;strokeColor=#d79b00;width=3.04;" edge="1" parent="1">
          <mxGeometry width="100" height="100" relative="1" as="geometry">
            <mxPoint x="30" y="340" as="sourcePoint" />
            <mxPoint x="60" y="340" as="targetPoint" />
          </mxGeometry>
        </mxCell>
        <mxCell id="PLjwvCZiPShB4uKmxhY9-25" value="" style="shape=flexArrow;endArrow=classic;startArrow=classic;html=1;rounded=0;startWidth=2.7419354838709675;startSize=1.912;endWidth=2.7419354838709675;endSize=1.912;fillColor=#fff2cc;strokeColor=#d6b656;width=3.04;" edge="1" parent="1">
          <mxGeometry width="100" height="100" relative="1" as="geometry">
            <mxPoint x="30" y="350" as="sourcePoint" />
            <mxPoint x="60" y="350" as="targetPoint" />
          </mxGeometry>
        </mxCell>
        <mxCell id="PLjwvCZiPShB4uKmxhY9-26" value="&lt;span style=&quot;font-size: 10px;&quot;&gt;freq1&lt;/span&gt;" style="text;html=1;align=center;verticalAlign=middle;whiteSpace=wrap;rounded=0;" vertex="1" parent="1">
          <mxGeometry x="70" y="310" width="20" height="10" as="geometry" />
        </mxCell>
        <mxCell id="PLjwvCZiPShB4uKmxhY9-27" value="&lt;span style=&quot;font-size: 10px;&quot;&gt;freq2&lt;/span&gt;" style="text;html=1;align=center;verticalAlign=middle;whiteSpace=wrap;rounded=0;" vertex="1" parent="1">
          <mxGeometry x="70" y="320" width="20" height="10" as="geometry" />
        </mxCell>
        <mxCell id="PLjwvCZiPShB4uKmxhY9-28" value="&lt;span style=&quot;font-size: 10px;&quot;&gt;freq3&lt;/span&gt;" style="text;html=1;align=center;verticalAlign=middle;whiteSpace=wrap;rounded=0;" vertex="1" parent="1">
          <mxGeometry x="70" y="330" width="20" height="10" as="geometry" />
        </mxCell>
        <mxCell id="PLjwvCZiPShB4uKmxhY9-29" value="&lt;span style=&quot;font-size: 10px;&quot;&gt;freq4&lt;/span&gt;" style="text;html=1;align=center;verticalAlign=middle;whiteSpace=wrap;rounded=0;" vertex="1" parent="1">
          <mxGeometry x="70" y="340" width="20" height="10" as="geometry" />
        </mxCell>
        <mxCell id="PLjwvCZiPShB4uKmxhY9-31" value="" style="verticalLabelPosition=bottom;aspect=fixed;html=1;shape=mxgraph.salesforce.iot2;" vertex="1" parent="1">
          <mxGeometry x="714" y="340" width="60" height="60" as="geometry" />
        </mxCell>
        <mxCell id="PLjwvCZiPShB4uKmxhY9-32" value="" style="verticalLabelPosition=bottom;aspect=fixed;html=1;shape=mxgraph.salesforce.iot2;" vertex="1" parent="1">
          <mxGeometry x="564" y="210" width="60" height="60" as="geometry" />
        </mxCell>
        <mxCell id="PLjwvCZiPShB4uKmxhY9-33" value="" style="verticalLabelPosition=bottom;aspect=fixed;html=1;shape=mxgraph.salesforce.iot2;" vertex="1" parent="1">
          <mxGeometry x="714" y="80" width="60" height="60" as="geometry" />
        </mxCell>
        <mxCell id="PLjwvCZiPShB4uKmxhY9-34" value="" style="verticalLabelPosition=bottom;aspect=fixed;html=1;shape=mxgraph.salesforce.iot2;" vertex="1" parent="1">
          <mxGeometry x="714" y="210" width="60" height="60" as="geometry" />
        </mxCell>
        <mxCell id="PLjwvCZiPShB4uKmxhY9-35" value="" style="verticalLabelPosition=bottom;aspect=fixed;html=1;shape=mxgraph.salesforce.communications2;" vertex="1" parent="1">
          <mxGeometry x="414" y="210" width="60" height="60" as="geometry" />
        </mxCell>
        <mxCell id="PLjwvCZiPShB4uKmxhY9-36" value="" style="shape=flexArrow;endArrow=classic;startArrow=classic;html=1;rounded=0;startWidth=10.285714285714286;startSize=5.714285714285714;endWidth=10.285714285714286;endSize=5.714285714285714;entryX=0;entryY=0.5;entryDx=0;entryDy=0;entryPerimeter=0;fillColor=#dae8fc;strokeColor=#6c8ebf;" edge="1" parent="1" target="PLjwvCZiPShB4uKmxhY9-34">
          <mxGeometry width="100" height="100" relative="1" as="geometry">
            <mxPoint x="624" y="239.71" as="sourcePoint" />
            <mxPoint x="684" y="240" as="targetPoint" />
            <Array as="points">
              <mxPoint x="674" y="240" />
            </Array>
          </mxGeometry>
        </mxCell>
        <mxCell id="PLjwvCZiPShB4uKmxhY9-37" value="" style="shape=flexArrow;endArrow=classic;startArrow=classic;html=1;rounded=0;startWidth=10.285714285714286;startSize=5.714285714285714;endWidth=10.285714285714286;endSize=5.714285714285714;entryX=0;entryY=0.5;entryDx=0;entryDy=0;entryPerimeter=0;fillColor=#dae8fc;strokeColor=#6c8ebf;" edge="1" parent="1">
          <mxGeometry width="100" height="100" relative="1" as="geometry">
            <mxPoint x="474" y="239.66" as="sourcePoint" />
            <mxPoint x="564" y="239.95" as="targetPoint" />
          </mxGeometry>
        </mxCell>
        <mxCell id="PLjwvCZiPShB4uKmxhY9-38" value="" style="shape=flexArrow;endArrow=classic;startArrow=classic;html=1;rounded=0;startWidth=10.285714285714286;startSize=5.714285714285714;endWidth=10.285714285714286;endSize=5.714285714285714;entryX=0.049;entryY=0.752;entryDx=0;entryDy=0;entryPerimeter=0;fillColor=#dae8fc;strokeColor=#6c8ebf;" edge="1" parent="1" target="PLjwvCZiPShB4uKmxhY9-33">
          <mxGeometry width="100" height="100" relative="1" as="geometry">
            <mxPoint x="614" y="210" as="sourcePoint" />
            <mxPoint x="704" y="150" as="targetPoint" />
          </mxGeometry>
        </mxCell>
        <mxCell id="PLjwvCZiPShB4uKmxhY9-39" value="" style="shape=flexArrow;endArrow=classic;startArrow=classic;html=1;rounded=0;startWidth=10.285714285714286;startSize=5.714285714285714;endWidth=10.285714285714286;endSize=5.714285714285714;fillColor=#dae8fc;strokeColor=#6c8ebf;" edge="1" parent="1">
          <mxGeometry width="100" height="100" relative="1" as="geometry">
            <mxPoint x="614" y="270" as="sourcePoint" />
            <mxPoint x="714" y="360" as="targetPoint" />
          </mxGeometry>
        </mxCell>
        <mxCell id="PLjwvCZiPShB4uKmxhY9-48" value="" style="rounded=1;whiteSpace=wrap;html=1;fillColor=#f8cecc;strokeColor=#b85450;" vertex="1" parent="1">
          <mxGeometry x="500" y="220" width="30" height="10" as="geometry" />
        </mxCell>
        <mxCell id="PLjwvCZiPShB4uKmxhY9-49" value="" style="rounded=1;whiteSpace=wrap;html=1;fillColor=#f8cecc;strokeColor=#b85450;" vertex="1" parent="1">
          <mxGeometry x="500" y="200" width="30" height="10" as="geometry" />
        </mxCell>
        <mxCell id="PLjwvCZiPShB4uKmxhY9-51" value="" style="rounded=1;whiteSpace=wrap;html=1;fillColor=#f8cecc;strokeColor=#b85450;" vertex="1" parent="1">
          <mxGeometry x="30" y="360" width="30" height="10" as="geometry" />
        </mxCell>
        <mxCell id="PLjwvCZiPShB4uKmxhY9-53" value="&lt;span style=&quot;font-size: 10px;&quot;&gt;data&lt;/span&gt;" style="text;html=1;align=center;verticalAlign=middle;whiteSpace=wrap;rounded=0;" vertex="1" parent="1">
          <mxGeometry x="70" y="360" width="20" height="10" as="geometry" />
        </mxCell>
        <mxCell id="PLjwvCZiPShB4uKmxhY9-55" value="" style="rounded=1;whiteSpace=wrap;html=1;fillColor=#f8cecc;strokeColor=#b85450;" vertex="1" parent="1">
          <mxGeometry x="100" y="220" width="30" height="10" as="geometry" />
        </mxCell>
        <mxCell id="PLjwvCZiPShB4uKmxhY9-58" value="&lt;font style=&quot;font-size: 18px;&quot;&gt;FDMA&lt;/font&gt;" style="text;html=1;align=center;verticalAlign=middle;whiteSpace=wrap;rounded=0;" vertex="1" parent="1">
          <mxGeometry x="160" y="40" width="60" height="30" as="geometry" />
        </mxCell>
        <mxCell id="PLjwvCZiPShB4uKmxhY9-60" value="&lt;font style=&quot;font-size: 18px;&quot;&gt;CDMA&lt;/font&gt;" style="text;html=1;align=center;verticalAlign=middle;whiteSpace=wrap;rounded=0;" vertex="1" parent="1">
          <mxGeometry x="564" y="40" width="60" height="30" as="geometry" />
        </mxCell>
      </root>
    </mxGraphModel>
  </diagram>
</mxfile>
